<svg width="454" height="77" viewBox="0 0 454 77" fill="none" xmlns="http://www.w3.org/2000/svg">
<path d="M131.09 66.6785C129.197 67.7788 127.032 68.3379 124.254 68.3379C117.689 68.3379 113.865 64.3517 113.865 57.4796C113.865 51.4191 116.913 46.4229 123.1 46.4229C130.477 46.4229 132.569 51.7438 132.569 59.0669H118.807C119.042 62.4398 121.278 64.3517 124.489 64.3517C126.996 64.3517 129.161 63.3777 131.09 62.2414V66.6785ZM127.609 55.3332C127.447 52.6817 126.293 50.4091 123.389 50.4091C120.485 50.4091 119.024 52.5194 118.789 55.3332H127.609Z" fill="#004388"/>
<path d="M137.387 46.9099H141.986V51.6717H142.058C142.293 49.7236 144.421 46.4229 147.505 46.4229C148.01 46.4229 148.552 46.4229 149.093 46.5852V52.0685C148.624 51.7799 147.704 51.6175 146.784 51.6175C142.563 51.6175 142.563 57.1549 142.563 60.1671V67.851H137.387V46.9099Z" fill="#004388"/>
<path d="M152.879 46.9099H157.713V49.8319H157.785C159.408 47.2706 161.771 46.4229 163.701 46.4229C166.479 46.4229 168.463 47.5231 169.581 50.1205C170.771 47.5953 173.369 46.4229 175.804 46.4229C180.71 46.4229 182.099 49.9581 182.099 54.6478V67.869H176.922V55.3873C176.922 53.4393 176.922 50.6616 173.946 50.6616C170.501 50.6616 170.086 54.9724 170.086 57.696V67.869H164.91V55.3873C164.91 53.4393 164.909 50.6616 161.933 50.6616C158.488 50.6616 158.074 54.9724 158.074 57.696V67.869H152.897V46.9099H152.879Z" fill="#004388"/>
<path d="M197.071 46.4229C202.987 46.4229 207.496 50.6075 207.496 57.5338C207.496 63.5582 203.672 68.3561 197.071 68.3561C190.505 68.3561 186.682 63.5582 186.682 57.5338C186.682 50.6075 191.191 46.4229 197.071 46.4229ZM190.884 38.3784H195.357V43.1041H190.884V38.3784ZM197.071 64.1173C201.057 64.1173 202.085 60.3837 202.085 56.8845C202.085 53.6739 200.462 50.6617 197.071 50.6617C193.716 50.6617 192.093 53.746 192.093 56.8845C192.075 60.3295 193.121 64.1173 197.071 64.1173ZM203.33 43.0861H198.857V38.3604H203.33V43.0861Z" fill="#004388"/>
<path d="M230.476 46.9099V65.8308C230.476 71.5305 228.311 76.8875 219.96 76.8875C217.904 76.8875 215.559 76.5629 213.088 75.4626L213.521 70.8271C215.108 71.7289 217.688 72.6488 219.311 72.6488C225.029 72.6488 225.299 68.1395 225.299 64.5141H225.227C224.253 66.2998 221.944 67.8509 219.04 67.8509C213.16 67.8509 210.924 62.8907 210.924 57.2812C210.924 52.2308 213.395 46.4229 219.347 46.4229C221.98 46.4229 224.019 47.3608 225.444 49.7597H225.516V46.9099H230.476ZM225.299 57.1549C225.299 53.5836 223.983 50.6435 220.97 50.6435C217.453 50.6435 216.335 54.0526 216.335 57.2812C216.335 60.1311 217.76 63.6303 220.736 63.6303C224.001 63.6303 225.299 60.6541 225.299 57.1549Z" fill="#004388"/>
<path d="M252.425 66.6785C250.531 67.7788 248.366 68.3379 245.589 68.3379C239.023 68.3379 235.199 64.3517 235.199 57.4796C235.199 51.4191 238.247 46.4229 244.434 46.4229C251.811 46.4229 253.904 51.7438 253.904 59.0669H240.141C240.376 62.4398 242.612 64.3517 245.823 64.3517C248.33 64.3517 250.495 63.3777 252.425 62.2414V66.6785ZM248.943 55.3332C248.781 52.6817 247.627 50.4091 244.723 50.4091C241.819 50.4091 240.358 52.5194 240.123 55.3332H248.943Z" fill="#004388"/>
<path d="M258.594 46.9099H263.5V49.7597H263.572C265.195 47.3608 267.396 46.4229 270.101 46.4229C274.809 46.4229 276.865 49.9221 276.865 54.6478V67.869H271.689V56.686C271.689 54.1247 271.652 50.6616 268.334 50.6616C264.582 50.6616 263.77 54.9364 263.77 57.6239V67.869H258.594V46.9099Z" fill="#004388"/>
<path d="M294.685 51.3109C293.098 50.7337 291.944 50.4091 290.05 50.4091C288.661 50.4091 287.001 50.9321 287.001 52.7358C287.001 56.0727 296.002 53.9624 296.002 61.5199C296.002 66.408 291.871 68.356 287.651 68.356C285.685 68.356 283.665 67.9952 281.771 67.4541L282.077 62.9809C283.701 63.8287 285.396 64.3698 287.182 64.3698C288.498 64.3698 290.573 63.8467 290.573 61.8085C290.573 57.696 281.572 60.5098 281.572 52.9343C281.572 48.425 285.324 46.4229 289.382 46.4229C291.817 46.4229 293.405 46.8377 295.028 47.1984L294.685 51.3109Z" fill="#004388"/>
<path d="M299.395 63.2158L312.056 43.9522H299.882V39.4609H317.81V44.1145L305.022 63.3782H318.081V67.8514H299.395V63.2158Z" fill="#004388"/>
<path d="M338.751 66.6785C336.857 67.7788 334.692 68.3379 331.915 68.3379C325.349 68.3379 321.525 64.3517 321.525 57.4796C321.525 51.4191 324.574 46.4229 330.76 46.4229C338.138 46.4229 340.23 51.7438 340.23 59.0669H326.468C326.702 62.4398 328.939 64.3517 332.149 64.3517C334.656 64.3517 336.821 63.3777 338.751 62.2414V66.6785ZM335.27 55.3332C335.107 52.6817 333.953 50.4091 331.049 50.4091C328.145 50.4091 326.684 52.5194 326.45 55.3332H335.27Z" fill="#004388"/>
<path d="M344.918 46.9099H349.824V49.7597H349.914C351.537 47.3608 353.738 46.4229 356.443 46.4229C361.151 46.4229 363.207 49.9221 363.207 54.6478V67.869H358.031V56.686C358.031 54.1247 357.995 50.6616 354.676 50.6616C350.924 50.6616 350.113 54.9364 350.113 57.6239V67.869H344.936V46.9099H344.918Z" fill="#004388"/>
<path d="M370.892 50.896H367.068V46.9098H370.892V42.7252L376.069 40.9756V46.9098H380.668V50.896H376.069V60.6541C376.069 62.4397 376.538 64.1172 378.504 64.1172C379.424 64.1172 380.325 63.9188 380.866 63.54L381.029 67.8509C379.947 68.1755 378.756 68.3379 377.205 68.3379C373.147 68.3379 370.91 65.7045 370.91 61.5379V50.896H370.892Z" fill="#004388"/>
<path d="M384.979 46.9099H389.578V51.6717H389.65C389.884 49.7236 392.013 46.4229 395.097 46.4229C395.602 46.4229 396.143 46.4229 396.684 46.5852V52.0685C396.215 51.7799 395.295 51.6175 394.376 51.6175C390.155 51.6175 390.155 57.1549 390.155 60.1671V67.851H384.979V46.9099Z" fill="#004388"/>
<path d="M418.834 67.8512H413.928V65.0014H413.856C412.268 67.0396 410.032 68.3382 407.326 68.3382C402.619 68.3382 400.562 64.839 400.562 60.1314V46.9102H405.739V58.0932C405.739 60.6544 405.775 64.1176 409.094 64.1176C412.846 64.1176 413.657 59.8428 413.657 57.1552V46.9102H418.834V67.8512Z" fill="#004388"/>
<path d="M424.732 46.9099H429.566V49.8319H429.638C431.262 47.2706 433.625 46.4229 435.555 46.4229C438.332 46.4229 440.316 47.5231 441.435 50.1205C442.625 47.5953 445.222 46.4229 447.657 46.4229C452.563 46.4229 453.952 49.9581 453.952 54.6478V67.869H448.776V55.3873C448.776 53.4393 448.776 50.6616 445.8 50.6616C442.354 50.6616 441.94 54.9724 441.94 57.696V67.869H436.763V55.3873C436.763 53.4393 436.763 50.6616 433.787 50.6616C430.342 50.6616 429.927 54.9724 429.927 57.696V67.869H424.75V46.9099H424.732Z" fill="#004388"/>
<path d="M88.5605 39.4609H94.3504L101.277 61.7548H101.349L108.185 39.4609H113.56L104.487 67.8514H97.8315L88.5605 39.4609Z" fill="#004388"/>
<rect width="68.5943" height="68.5951" fill="#004388"/>
<path d="M53.0653 59.6845L67.2243 40.0962V32.5566H38.744V32.5747H38.726L30.6094 59.3959L22.7453 32.5747L14.4844 32.5566L24.9638 67.224H36.2369L44.4437 40.0962H57.9352L43.7763 59.6845L43.7583 67.224H67.2243V59.6845H53.0653Z" fill="white"/>
</svg>
